<svg id="visual" viewBox="0 0 900 600" width="900" height="600" xmlns="http://www.w3.org/2000/svg" xmlns:xlink="http://www.w3.org/1999/xlink" version="1.1"><rect x="0" y="0" width="900" height="600" fill="#ffffff"></rect><path d="M0 418L21.5 415.7C43 413.3 86 408.7 128.8 404.2C171.7 399.7 214.3 395.3 257.2 402.2C300 409 343 427 385.8 421.2C428.7 415.3 471.3 385.7 514.2 382.8C557 380 600 404 642.8 413.2C685.7 422.3 728.3 416.7 771.2 406.8C814 397 857 383 878.5 376L900 369L900 601L878.5 601C857 601 814 601 771.2 601C728.3 601 685.7 601 642.8 601C600 601 557 601 514.2 601C471.3 601 428.7 601 385.8 601C343 601 300 601 257.2 601C214.3 601 171.7 601 128.8 601C86 601 43 601 21.5 601L0 601Z" fill="#059669"></path><path d="M0 395L21.5 396.7C43 398.3 86 401.7 128.8 408.3C171.7 415 214.3 425 257.2 433.2C300 441.3 343 447.7 385.8 445.8C428.7 444 471.3 434 514.2 431.7C557 429.3 600 434.7 642.8 436.5C685.7 438.3 728.3 436.7 771.2 443.2C814 449.7 857 464.3 878.5 471.7L900 479L900 601L878.5 601C857 601 814 601 771.2 601C728.3 601 685.7 601 642.8 601C600 601 557 601 514.2 601C471.3 601 428.7 601 385.8 601C343 601 300 601 257.2 601C214.3 601 171.7 601 128.8 601C86 601 43 601 21.5 601L0 601Z" fill="#02835e"></path><path d="M0 473L21.5 468C43 463 86 453 128.8 453C171.7 453 214.3 463 257.2 463C300 463 343 453 385.8 453.5C428.7 454 471.3 465 514.2 469.5C557 474 600 472 642.8 471.5C685.7 471 728.3 472 771.2 470.7C814 469.3 857 465.7 878.5 463.8L900 462L900 601L878.5 601C857 601 814 601 771.2 601C728.3 601 685.7 601 642.8 601C600 601 557 601 514.2 601C471.3 601 428.7 601 385.8 601C343 601 300 601 257.2 601C214.3 601 171.7 601 128.8 601C86 601 43 601 21.5 601L0 601Z" fill="#027152"></path><path d="M0 516L21.5 519.7C43 523.3 86 530.7 128.8 532.7C171.7 534.7 214.3 531.3 257.2 531.3C300 531.3 343 534.7 385.8 530.3C428.7 526 471.3 514 514.2 506.5C557 499 600 496 642.8 493.5C685.7 491 728.3 489 771.2 487.5C814 486 857 485 878.5 484.5L900 484L900 601L878.5 601C857 601 814 601 771.2 601C728.3 601 685.7 601 642.8 601C600 601 557 601 514.2 601C471.3 601 428.7 601 385.8 601C343 601 300 601 257.2 601C214.3 601 171.7 601 128.8 601C86 601 43 601 21.5 601L0 601Z" fill="#045f47"></path><path d="M0 550L21.5 546C43 542 86 534 128.8 536.7C171.7 539.3 214.3 552.7 257.2 560.5C300 568.3 343 570.7 385.8 571.5C428.7 572.3 471.3 571.7 514.2 569.5C557 567.3 600 563.7 642.8 561.7C685.7 559.7 728.3 559.3 771.2 561.3C814 563.3 857 567.7 878.5 569.8L900 572L900 601L878.5 601C857 601 814 601 771.2 601C728.3 601 685.7 601 642.8 601C600 601 557 601 514.2 601C471.3 601 428.7 601 385.8 601C343 601 300 601 257.2 601C214.3 601 171.7 601 128.8 601C86 601 43 601 21.5 601L0 601Z" fill="#064e3b"></path></svg>